<svg xmlns="http://www.w3.org/2000/svg" version="1.1" xmlns:xlink="http://www.w3.org/1999/xlink" xmlns:svgjs="http://svgjs.dev/svgjs" width="2000" height="1500" viewBox="0 0 2000 1500"><rect width="2000" height="1500" fill="#ffffff"></rect><g transform="matrix(0.75,0,0,0.75,249.090909090909,613.6011464721367)"><svg viewBox="0 0 396 72" data-background-color="#ffffff" preserveAspectRatio="xMidYMid meet" height="363" width="2000" xmlns="http://www.w3.org/2000/svg" xmlns:xlink="http://www.w3.org/1999/xlink"><g id="tight-bounds" transform="matrix(1,0,0,1,0.2400000000000091,0.0724240734844841)"><svg viewBox="0 0 395.52 71.85515185303103" height="71.85515185303103" width="395.52"><g><svg viewBox="0 0 495.8625843359662 90.08465133418602" height="71.85515185303103" width="395.52"><g transform="matrix(1,0,0,1,0,12.450194214782584)"><svg viewBox="0 0 395.52 65.18426290462085" height="65.18426290462085" width="395.52"><g id="textblocktransform"><svg viewBox="0 0 395.52 65.18426290462085" height="65.18426290462085" width="395.52" id="textblock"><g><svg viewBox="0 0 395.52 43.45182484361036" height="43.45182484361036" width="395.52"><g transform="matrix(1,0,0,1,0,0)"><svg width="395.52" viewBox="2.69 -34.96 409.74 45.02" height="43.45182484361036" data-palette-color="#398378"><path d="M2.69-32.91L2.69-34.18 9.57-34.18 29.49-5.81 29.49-34.18 32.52-34.18 32.52 0 29.44 0 6.84-32.18 6.84 0.05 5.52 0 5.52-29.83Q5.52-30.13 5.53-30.57 5.54-31.01 5.54-31.2 5.54-31.4 5.52-31.7 5.49-32.01 5.43-32.12 5.37-32.23 5.24-32.41 5.1-32.59 4.9-32.64 4.69-32.69 4.38-32.78 4.08-32.86 3.66-32.89 3.25-32.91 2.69-32.91L2.69-32.91ZM44.55 0L42.06 0 42.06-17.68Q42.06-18.33 42.01-18.65 41.97-18.97 41.71-19.36 41.45-19.75 40.84-19.91 40.23-20.07 39.18-20.07L39.18-20.07 39.18-21.09 44.55-21.09 44.55 0ZM41.99-27.66Q41.48-28.17 41.48-28.91 41.48-29.64 41.99-30.18 42.5-30.71 43.23-30.71 43.97-30.71 44.5-30.18 45.04-29.64 45.04-28.91 45.04-28.17 44.5-27.66 43.97-27.15 43.23-27.15 42.5-27.15 41.99-27.66ZM59.47-21.31L59.47-21.31Q60.32-21.31 61.37-21.14 62.42-20.97 63.64-20.48L63.64-20.48Q64.25-20.24 65.03-19.78L65.03-19.78Q65.64-19.41 65.79-19.29L65.79-19.29Q65.96-19.14 66.04-19.04L66.04-19.04 66.04-14.06 65.01-14.06Q64.64-16.7 63.09-18.46 61.54-20.21 58.95-20.21L58.95-20.21Q56.29-20.21 54.45-17.81 52.61-15.41 52.61-11.23L52.61-11.23Q52.61-7.32 54.5-4.76 56.39-2.2 59.59-2.2L59.59-2.2Q60.59-2.2 61.59-2.56 62.59-2.93 63.24-3.38 63.89-3.83 64.48-4.42 65.08-5 65.27-5.24 65.45-5.47 65.55-5.62L65.55-5.62 67.26-4.05 66.94-3.61Q66.62-3.17 65.93-2.54 65.23-1.9 64.31-1.27 63.4-0.63 62.01-0.2 60.62 0.24 59.1 0.24L59.1 0.24Q55.1 0.24 52.61-2.86 50.12-5.96 50.12-10.64L50.12-10.64Q50.12-13.18 50.9-15.09L50.9-15.09Q51.83-17.36 52.9-18.43L52.9-18.43Q53.88-19.46 55.37-20.31L55.37-20.31Q57.1-21.31 59.47-21.31ZM88.59 0L87.27 0 90.4-27.88Q90.64-30.1 90.66-31.25L90.66-31.25Q90.69-32.32 90.18-32.69L90.18-32.69Q89.81-32.96 88.42-32.96L88.42-32.96Q88.22-32.96 87.95-32.96L87.95-32.96 87.95-34.18 95.08-34.18 106.36-5.32 116.91-34.18 120.52-34.18 124.43 0 120.82 0 117.2-31.15 105.87 0 104.7 0 92.2-32.03 88.59 0ZM137.76-21.29L137.76-21.29Q139.64-21.29 141-20.92 142.37-20.56 143.14-20 143.91-19.43 144.36-18.53 144.81-17.63 144.95-16.77 145.08-15.92 145.08-14.75L145.08-14.75 145.08 0 142.88 0 142.64-3.91Q141.44-1.98 139.29-0.94 137.15 0.1 135.41 0.1L135.41 0.1Q133.04 0.1 131.3-1.28 129.55-2.66 129.55-5.47L129.55-5.47Q129.55-7.01 130.14-8.2 130.72-9.4 131.8-10.13 132.87-10.86 134.09-11.35 135.31-11.84 136.93-12.07 138.54-12.3 139.82-12.38 141.1-12.45 142.64-12.45L142.64-12.45Q142.64-12.65 142.59-14.65L142.59-14.65Q142.57-15.72 142.39-16.43 142.22-17.14 141.74-17.79 141.25-18.43 140.26-18.74 139.27-19.04 137.76-19.04L137.76-19.04Q134.92-19.04 132.09-17.87L132.09-17.87 131.65-19.97 132.36-20.31Q133.07-20.63 134.59-20.96 136.12-21.29 137.76-21.29ZM142.64-7.23L142.64-7.23Q142.64-7.23 142.64-11.38L142.64-11.38Q132.24-11.38 132.24-5.76L132.24-5.76Q132.24-3.86 133.4-2.69 134.56-1.51 136.49-1.51L136.49-1.51Q138.85-1.51 140.75-3.33 142.64-5.15 142.64-7.23ZM166.56-21.04L169-21.04 169-3.32Q169-2.66 169.05-2.34 169.1-2.03 169.36-1.64 169.61-1.25 170.22-1.09 170.83-0.93 171.88-0.93L171.88-0.93 171.88 0 166.56 0 166.56-4.44Q163.66-2.05 161.52-0.9 159.38 0.24 156.99 0.24L156.99 0.24Q152.21 0.24 152.21-5.66L152.21-5.66 152.21-21.04 154.7-21.04 154.7-6.84Q154.7-3.88 155.5-2.89 156.31-1.9 158.16-1.9L158.16-1.9Q160.26-1.9 162.66-3.15 165.05-4.39 166.56-5.91L166.56-5.91 166.56-21.04ZM179.06 0L176.52 0 176.52-15.92Q176.52-18.02 175.69-20.12L175.69-20.12 178.08-21.09Q178.45-20.24 178.96-17.68L178.96-17.68Q179.11-17.85 179.4-18.14 179.69-18.43 180.41-19.04 181.13-19.65 181.89-20.14 182.65-20.63 183.69-21.01 184.72-21.39 185.65-21.39L185.65-21.39Q187.26-21.39 188-20.85L188-20.85 186.43-17.97 186.19-18.16Q185.94-18.38 185.37-18.59 184.8-18.8 184.14-18.8L184.14-18.8Q182.11-18.8 180.59-17.44 179.06-16.09 179.06-14.21L179.06-14.21 179.06 0ZM195.07 0L192.58 0 192.58-17.68Q192.58-18.33 192.53-18.65 192.48-18.97 192.23-19.36 191.97-19.75 191.36-19.91 190.75-20.07 189.7-20.07L189.7-20.07 189.7-21.09 195.07-21.09 195.07 0ZM192.51-27.66Q192-28.17 192-28.91 192-29.64 192.51-30.18 193.02-30.71 193.75-30.71 194.49-30.71 195.02-30.18 195.56-29.64 195.56-28.91 195.56-28.17 195.02-27.66 194.49-27.15 193.75-27.15 193.02-27.15 192.51-27.66ZM209.99-21.31L209.99-21.31Q210.84-21.31 211.89-21.14 212.94-20.97 214.16-20.48L214.16-20.48Q214.77-20.24 215.55-19.78L215.55-19.78Q216.16-19.41 216.31-19.29L216.31-19.29Q216.48-19.14 216.55-19.04L216.55-19.04 216.55-14.06 215.53-14.06Q215.16-16.7 213.61-18.46 212.06-20.21 209.47-20.21L209.47-20.21Q206.81-20.21 204.97-17.81 203.13-15.41 203.13-11.23L203.13-11.23Q203.13-7.32 205.02-4.76 206.91-2.2 210.11-2.2L210.11-2.2Q211.11-2.2 212.11-2.56 213.11-2.93 213.76-3.38 214.41-3.83 215-4.42 215.6-5 215.79-5.24 215.97-5.47 216.07-5.62L216.07-5.62 217.78-4.05 217.46-3.61Q217.14-3.17 216.44-2.54 215.75-1.9 214.83-1.27 213.92-0.63 212.53-0.2 211.13 0.24 209.62 0.24L209.62 0.24Q205.62 0.24 203.13-2.86 200.64-5.96 200.64-10.64L200.64-10.64Q200.64-13.18 201.42-15.09L201.42-15.09Q202.35-17.36 203.42-18.43L203.42-18.43Q204.4-19.46 205.89-20.31L205.89-20.31Q207.62-21.31 209.99-21.31ZM230.81-21.04L230.81-21.04Q232.25-21.04 233.45-20.73 234.64-20.41 235.47-19.92 236.3-19.43 236.95-18.73 237.6-18.02 237.98-17.32 238.35-16.63 238.62-15.82 238.89-15.01 238.99-14.43 239.09-13.84 239.14-13.23 239.18-12.62 239.17-12.43 239.16-12.23 239.16-12.11L239.16-12.11 224.76-12.11Q224.73-11.6 224.73-11.11L224.73-11.11Q224.73-7.15 226.34-4.93L226.34-4.93Q228.15-2.44 231.54-2.44L231.54-2.44Q232.52-2.44 233.51-2.81 234.5-3.17 235.16-3.63 235.81-4.08 236.43-4.66 237.04-5.25 237.22-5.48 237.4-5.71 237.5-5.86L237.5-5.86 239.21-4.35 238.89-3.91Q238.57-3.44 237.88-2.81 237.18-2.17 236.27-1.54 235.35-0.9 233.96-0.45 232.57 0 231.05 0L231.05 0Q227.07 0 224.57-3.03 222.07-6.05 222.07-10.55L222.07-10.55Q222.07-15.19 224.54-18.12 227-21.04 230.81-21.04ZM224.85-13.09L224.85-13.09 236.57-13.09Q236.57-13.53 236.49-14.18 236.4-14.84 236.05-15.93 235.69-17.02 235.12-17.9 234.55-18.77 233.42-19.42 232.3-20.07 230.81-20.07L230.81-20.07Q229.35-20.07 228.21-19.41 227.07-18.75 226.48-17.88 225.88-17.02 225.49-15.92 225.1-14.82 224.99-14.18 224.88-13.55 224.85-13.09ZM282.81-8.33L283-8.64Q283-8.64 285.74-7.18L285.74-7.18 285.52-6.74Q285.3-6.3 284.78-5.62 284.27-4.93 283.55-4.09 282.83-3.25 281.72-2.4 280.61-1.56 279.3-0.88 278-0.2 276.2 0.24 274.41 0.68 272.46 0.68L272.46 0.68Q270.16 0.68 267.96-0.07 265.77-0.83 263.81-2.37 261.86-3.91 260.38-6.05 258.91-8.2 258.04-11.18 257.17-14.16 257.17-17.58L257.17-17.58Q257.17-21.58 258.5-24.94 259.83-28.3 262.03-30.44 264.23-32.59 266.95-33.78 269.67-34.96 272.55-34.96L272.55-34.96Q274.6-34.96 276.48-34.58 278.36-34.2 279.5-33.75 280.63-33.3 281.62-32.7 282.61-32.1 282.88-31.87 283.15-31.64 283.3-31.49L283.3-31.49 284.03-25.49 282.61-25.49Q282.29-27.03 281.51-28.43 280.73-29.83 279.51-31.03L279.51-31.03Q278.44-32.08 276.46-32.96L276.46-32.96Q274.75-33.72 272.46-33.72L272.46-33.72Q270.11-33.72 268.01-32.74 265.91-31.76 264.11-29.9 262.3-28.03 261.32-25.09 260.35-22.14 260.35-18.6L260.35-18.6Q260.35-11.62 263.87-7.06 267.4-2.49 272.89-2.49L272.89-2.49Q274.29-2.49 275.6-2.83 276.92-3.17 277.9-3.71 278.88-4.25 279.74-4.92 280.61-5.59 281.18-6.24 281.76-6.88 282.18-7.45 282.61-8.01 282.81-8.33L282.81-8.33ZM299.31-21.78L299.31-21.78Q303.65-21.78 306.12-18.73 308.59-15.67 308.59-10.89L308.59-10.89Q308.59-8.57 308.01-6.58 307.44-4.59 306.34-3.04 305.24-1.49 303.45-0.6 301.65 0.29 299.36 0.29L299.36 0.29Q297.04 0.29 295.23-0.6 293.42-1.49 292.33-3.04 291.23-4.59 290.65-6.58 290.08-8.57 290.08-10.89L290.08-10.89Q290.08-15.67 292.53-18.73 294.99-21.78 299.31-21.78ZM299.36-0.88L299.36-0.88Q300.7-0.88 301.86-1.39 303.02-1.9 304.02-3 305.02-4.1 305.61-6.12 306.19-8.13 306.19-10.84L306.19-10.84Q306.19-14.72 304.23-16.96 302.26-19.19 299.41-19.19L299.41-19.19Q296.53-19.19 294.55-16.96 292.57-14.72 292.57-10.84L292.57-10.84Q292.57-8.64 292.96-6.91 293.35-5.18 294-4.06 294.65-2.95 295.54-2.22 296.43-1.49 297.37-1.18 298.31-0.88 299.36-0.88ZM317.76 0L315.27 0 315.27-30.81Q315.27-31.47 315.22-31.79 315.17-32.1 314.92-32.5 314.66-32.89 314.05-33.04 313.44-33.2 312.39-33.2L312.39-33.2 312.39-34.18 317.76-34.18 317.76 0ZM328.36 0L325.87 0 325.87-30.81Q325.87-31.47 325.82-31.79 325.77-32.1 325.51-32.5 325.26-32.89 324.65-33.04 324.03-33.2 322.98-33.2L322.98-33.2 322.98-34.18 328.36-34.18 328.36 0ZM342.71-21.04L342.71-21.04Q344.15-21.04 345.35-20.73 346.54-20.41 347.37-19.92 348.2-19.43 348.85-18.73 349.5-18.02 349.87-17.32 350.25-16.63 350.52-15.82 350.79-15.01 350.89-14.43 350.99-13.84 351.03-13.23 351.08-12.62 351.07-12.43 351.06-12.23 351.06-12.11L351.06-12.11 336.65-12.11Q336.63-11.6 336.63-11.11L336.63-11.11Q336.63-7.15 338.24-4.93L338.24-4.93Q340.05-2.44 343.44-2.44L343.44-2.44Q344.42-2.44 345.41-2.81 346.4-3.17 347.05-3.63 347.71-4.08 348.32-4.66 348.93-5.25 349.12-5.48 349.3-5.71 349.4-5.86L349.4-5.86 351.11-4.35 350.79-3.91Q350.47-3.44 349.78-2.81 349.08-2.17 348.17-1.54 347.25-0.9 345.86-0.45 344.47 0 342.95 0L342.95 0Q338.97 0 336.47-3.03 333.97-6.05 333.97-10.55L333.97-10.55Q333.97-15.19 336.43-18.12 338.9-21.04 342.71-21.04ZM336.75-13.09L336.75-13.09 348.47-13.09Q348.47-13.53 348.39-14.18 348.3-14.84 347.95-15.93 347.59-17.02 347.02-17.9 346.44-18.77 345.32-19.42 344.2-20.07 342.71-20.07L342.71-20.07Q341.24-20.07 340.11-19.41 338.97-18.75 338.38-17.88 337.78-17.02 337.39-15.92 337-14.82 336.89-14.18 336.78-13.55 336.75-13.09ZM355.99-13.67L355.99-13.67Q355.99-16.85 358.26-19.12 360.53-21.39 363.7-21.39L363.7-21.39Q365.29-21.39 366.8-20.73L366.8-20.73 373.37-21.44 373.37-19.09 369.2-19.09Q371.42-16.82 371.42-13.67L371.42-13.67Q371.42-10.5 369.15-8.23 366.88-5.96 363.7-5.96L363.7-5.96Q361.77-5.96 360.04-6.88L360.04-6.88Q358.19-5.64 358.19-4.2L358.19-4.2Q358.19-3.1 359.03-2.77 359.87-2.44 362.14-2.44L362.14-2.44 366-2.44Q367.05-2.44 368-2.29 368.95-2.15 369.95-1.73 370.95-1.32 371.69-0.66 372.42 0 372.89 1.1 373.37 2.2 373.37 3.61L373.37 3.61Q373.37 6.32 370.95 8.19 368.54 10.06 363.95 10.06L363.95 10.06Q362.12 10.06 360.58 9.79 359.04 9.52 357.71 8.91 356.38 8.3 355.62 7.2 354.86 6.1 354.86 4.59L354.86 4.59Q354.86 1.76 357.87-0.37L357.87-0.37Q356.09-0.98 356.09-2.98L356.09-2.98Q356.09-3.88 356.73-4.9 357.38-5.91 357.99-6.46 358.6-7.01 359.16-7.42L359.16-7.42Q357.7-8.5 356.84-10.14 355.99-11.79 355.99-13.67ZM365.59-18.64Q364.65-18.95 363.65-18.95 362.65-18.95 361.71-18.64 360.77-18.33 359.91-17.69 359.04-17.04 358.51-15.82 357.99-14.6 357.99-12.99L357.99-12.99Q357.99-11.43 358.49-10.22 358.99-9.01 359.83-8.31 360.68-7.62 361.65-7.28 362.63-6.93 363.7-6.93L363.7-6.93Q365.95-6.93 367.63-8.46 369.32-9.99 369.32-12.99L369.32-12.99Q369.32-14.6 368.79-15.82 368.27-17.04 367.4-17.69 366.53-18.33 365.59-18.64ZM365.07 0L361.94 0Q360.04 0 359.26-0.1L359.26-0.1Q357.31 1.49 357.31 4.25L357.31 4.25Q357.31 5.98 358.32 7.12 359.33 8.25 360.74 8.67 362.14 9.08 363.9 9.08L363.9 9.08Q370.93 9.08 370.93 4.25L370.93 4.25Q370.93 2.15 369.44 1.07 367.95 0 365.07 0L365.07 0ZM386.01-21.04L386.01-21.04Q387.46-21.04 388.65-20.73 389.85-20.41 390.68-19.92 391.51-19.43 392.15-18.73 392.8-18.02 393.18-17.32 393.56-16.63 393.83-15.82 394.1-15.01 394.19-14.43 394.29-13.84 394.34-13.23 394.39-12.62 394.38-12.43 394.36-12.23 394.36-12.11L394.36-12.11 379.96-12.11Q379.94-11.6 379.94-11.11L379.94-11.11Q379.94-7.15 381.55-4.93L381.55-4.93Q383.35-2.44 386.75-2.44L386.75-2.44Q387.72-2.44 388.71-2.81 389.7-3.17 390.36-3.63 391.02-4.08 391.63-4.66 392.24-5.25 392.42-5.48 392.61-5.71 392.7-5.86L392.7-5.86 394.41-4.35 394.1-3.91Q393.78-3.44 393.08-2.81 392.39-2.17 391.47-1.54 390.56-0.9 389.16-0.45 387.77 0 386.26 0L386.26 0Q382.28 0 379.78-3.03 377.27-6.05 377.27-10.55L377.27-10.55Q377.27-15.19 379.74-18.12 382.21-21.04 386.01-21.04ZM380.06-13.09L380.06-13.09 391.78-13.09Q391.78-13.53 391.69-14.18 391.61-14.84 391.25-15.93 390.9-17.02 390.32-17.9 389.75-18.77 388.63-19.42 387.5-20.07 386.01-20.07L386.01-20.07Q384.55-20.07 383.41-19.41 382.28-18.75 381.68-17.88 381.08-17.02 380.69-15.92 380.3-14.82 380.19-14.18 380.08-13.55 380.06-13.09ZM398.22-2.51L397.93-2.83 399.34-4.54Q399.44-4.44 399.62-4.27 399.81-4.1 400.44-3.67 401.08-3.25 401.76-2.92 402.44-2.59 403.5-2.32 404.57-2.05 405.64-2.05L405.64-2.05Q407.77-2.05 408.92-3.11 410.08-4.17 410.08-5.57L410.08-5.57Q410.08-6.42 409.47-7.15 408.86-7.89 407.87-8.42 406.89-8.96 405.7-9.48 404.52-10.01 403.33-10.62 402.15-11.23 401.16-11.96 400.17-12.7 399.56-13.77 398.95-14.84 398.95-16.16L398.95-16.16Q398.95-18.36 400.64-19.9 402.32-21.44 405.35-21.44L405.35-21.44Q406.93-21.44 408.44-21.09 409.94-20.75 410.65-20.41L410.65-20.41 411.35-20.07 411.35-15.38 410.38-15.38Q410.35-15.58 410.29-15.91 410.23-16.24 409.88-17.09 409.52-17.94 409-18.59 408.47-19.24 407.44-19.78 406.4-20.31 405.06-20.31L405.06-20.31Q403.35-20.31 402.25-19.35 401.15-18.38 401.15-16.7L401.15-16.7Q401.15-15.63 401.77-14.75 402.39-13.87 403.38-13.27 404.37-12.67 405.58-12.11 406.79-11.55 408-10.96 409.21-10.38 410.19-9.7 411.18-9.03 411.81-8.02 412.43-7.01 412.43-5.76L412.43-5.76Q412.43-3.1 410.45-1.45 408.47 0.2 405.64 0.2L405.64 0.2Q404.2 0.2 402.87-0.12 401.54-0.44 400.67-0.88 399.81-1.32 399.16-1.76 398.51-2.2 398.22-2.51L398.22-2.51Z" opacity="1" transform="matrix(1,0,0,1,0,0)" fill="#398378" class="wordmark-text-0" data-fill-palette-color="primary" id="text-0"></path></svg></g></svg></g><g transform="matrix(1,0,0,1,163.310208,53.70975784539052)"><svg viewBox="0 0 232.209792 11.47450505923034" height="11.47450505923034" width="232.209792"><g transform="matrix(1,0,0,1,0,0)"><svg width="232.209792" viewBox="4.3 -35.55 896.4100000000001 44.3" height="11.47450505923034" data-palette-color="#398378"><path d="M8.9 0L4.3 0 4.3-33 8.9-33 8.9 0ZM27.45 0L6.65 0 6.65-3.95 27.45-3.95 27.45 0ZM25.1-15L6.65-15 6.65-18.7 25.1-18.7 25.1-15ZM27.4-29.1L6.65-29.1 6.65-33 27.4-33 27.4-29.1ZM37.9 0L33.35 0 33.35-16 33.35-25.85 37.4-25.85 36.95-17.65 37.8-17.65Q38.45-20.6 39.55-22.58 40.65-24.55 42.27-25.53 43.9-26.5 46-26.5L46-26.5Q48.5-26.5 50.1-25.28 51.7-24.05 52.47-22.1 53.25-20.15 53.25-17.8L53.25-17.8 54.05-17.8Q54.6-20.6 55.75-22.55 56.9-24.5 58.6-25.5 60.3-26.5 62.5-26.5L62.5-26.5Q64.5-26.5 66-25.7 67.5-24.9 68.55-23.33 69.6-21.75 70.1-19.45 70.6-17.15 70.6-14.15L70.6-14.15 70.6 0 66.05 0 66.05-13.55Q66.05-16.5 65.5-18.48 64.95-20.45 63.87-21.43 62.8-22.4 61.15-22.4L61.15-22.4Q59.3-22.4 57.82-21.13 56.35-19.85 55.42-17.57 54.5-15.3 54.2-12.4L54.2-12.4 54.2 0 49.75 0 49.75-13.1Q49.75-16.2 49.2-18.25 48.65-20.3 47.57-21.35 46.5-22.4 44.8-22.4L44.8-22.4Q42.8-22.4 41.35-21.03 39.9-19.65 39.02-17.35 38.15-15.05 37.9-12.2L37.9-12.2 37.9 0ZM82.7 8.1L78.1 8.1 78.1-12.9 78.1-25.85 82.2-25.85 81.95-19.2 82.7-19.2Q83.3-21.4 84.37-23.03 85.45-24.65 87.15-25.58 88.85-26.5 91.25-26.5L91.25-26.5Q94.8-26.5 97.17-24.73 99.55-22.95 100.75-19.88 101.95-16.8 101.95-12.9L101.95-12.9Q101.95-9 100.75-5.95 99.55-2.9 97.22-1.13 94.9 0.65 91.55 0.65L91.55 0.65Q88.85 0.65 87.07-0.48 85.3-1.6 84.25-3.45 83.2-5.3 82.6-7.3L82.6-7.3 81.75-7.3Q82.05-5.95 82.25-4.5 82.45-3.05 82.57-1.63 82.7-0.2 82.7 1.1L82.7 1.1 82.7 8.1ZM90.4-3.3L90.4-3.3Q92.6-3.3 94.1-4.58 95.6-5.85 96.4-8.05 97.2-10.25 97.2-13L97.2-13Q97.2-15.95 96.37-18.05 95.55-20.15 94.05-21.33 92.55-22.5 90.4-22.5L90.4-22.5Q88.55-22.5 87.12-21.68 85.7-20.85 84.7-19.48 83.7-18.1 83.17-16.48 82.65-14.85 82.65-13.25L82.65-13.25 82.65-12.65Q82.65-11.65 82.95-10.43 83.25-9.2 83.85-7.95 84.45-6.7 85.37-5.65 86.3-4.6 87.55-3.95 88.8-3.3 90.4-3.3ZM119.59 0.65L119.59 0.65Q115.89 0.65 113.07-0.98 110.24-2.6 108.67-5.65 107.09-8.7 107.09-13.05L107.09-13.05Q107.09-17.55 108.77-20.53 110.44-23.5 113.24-25 116.04-26.5 119.49-26.5L119.49-26.5Q123.09-26.5 125.92-24.93 128.74-23.35 130.39-20.33 132.04-17.3 132.04-12.85L132.04-12.85Q132.04-8.4 130.42-5.4 128.79-2.4 125.97-0.88 123.14 0.65 119.59 0.65ZM119.79-3.1L119.79-3.1Q122.19-3.1 123.92-4.28 125.64-5.45 126.57-7.6 127.49-9.75 127.49-12.7L127.49-12.7Q127.49-15.75 126.52-17.98 125.54-20.2 123.74-21.43 121.94-22.65 119.39-22.65L119.39-22.65Q117.04-22.65 115.32-21.55 113.59-20.45 112.64-18.32 111.69-16.2 111.69-13.15L111.69-13.15Q111.69-8.45 113.87-5.78 116.04-3.1 119.79-3.1ZM149.14 0L142.69 0 135.84-25.85 140.54-25.85 145.64-3.85 146.44-3.85 151.89-25.85 157.79-25.85 163.29-3.85 164.04-3.85 169.14-25.85 173.79-25.85 166.84 0 160.44 0 155.09-21.95 154.49-21.95 149.14 0ZM190.09 0.65L190.09 0.65Q187.04 0.65 184.71-0.28 182.39-1.2 180.79-2.95 179.19-4.7 178.39-7.1 177.59-9.5 177.59-12.5L177.59-12.5Q177.59-15.55 178.39-18.1 179.19-20.65 180.74-22.55 182.29-24.45 184.54-25.48 186.79-26.5 189.69-26.5L189.69-26.5Q192.24-26.5 194.34-25.65 196.44-24.8 197.91-23.03 199.39-21.25 200.14-18.57 200.89-15.9 200.74-12.3L200.74-12.3 180.44-12.15 180.44-15.25 197.99-15.4 196.44-13.3Q196.69-16.45 195.84-18.5 194.99-20.55 193.41-21.6 191.84-22.65 189.69-22.65L189.69-22.65Q187.39-22.65 185.64-21.45 183.89-20.25 182.96-18 182.04-15.75 182.04-12.55L182.04-12.55Q182.04-7.95 184.09-5.53 186.14-3.1 190.14-3.1L190.14-3.1Q191.74-3.1 192.91-3.48 194.09-3.85 194.91-4.53 195.74-5.2 196.26-6.1 196.79-7 197.09-8.05L197.09-8.05 201.09-7.1Q200.64-5.3 199.71-3.88 198.79-2.45 197.41-1.45 196.04-0.45 194.24 0.1 192.44 0.65 190.09 0.65ZM211.74 0L207.19 0 207.19-14 207.19-25.85 211.29-25.85 210.89-16.85 211.74-16.85Q212.19-19.8 213.14-21.95 214.09-24.1 215.66-25.3 217.24-26.5 219.59-26.5L219.59-26.5Q220.09-26.5 220.74-26.43 221.39-26.35 222.24-26.05L222.24-26.05 221.99-21.3Q221.24-21.6 220.49-21.73 219.74-21.85 219.04-21.85L219.04-21.85Q217.09-21.85 215.66-20.6 214.24-19.35 213.29-17.23 212.34-15.1 211.74-12.45L211.74-12.45 211.74 0ZM231.73 0L227.18 0 227.18-25.85 231.73-25.85 231.73 0ZM229.48-30.35L229.48-30.35Q227.88-30.35 227.08-31 226.28-31.65 226.28-32.95L226.28-32.95Q226.28-34.25 227.08-34.9 227.88-35.55 229.43-35.55L229.43-35.55Q231.03-35.55 231.83-34.9 232.63-34.25 232.63-32.95L232.63-32.95Q232.63-31.7 231.83-31.03 231.03-30.35 229.48-30.35ZM244.18 0L239.63 0 239.63-16.05 239.63-25.85 243.73-25.85 243.28-17.65 244.13-17.65Q244.83-20.7 246-22.65 247.18-24.6 248.98-25.55 250.78-26.5 253.18-26.5L253.18-26.5Q257.48-26.5 259.7-23.43 261.93-20.35 261.93-14.25L261.93-14.25 261.93 0 257.33 0 257.33-13.85Q257.33-18.25 255.96-20.35 254.58-22.45 251.93-22.45L251.93-22.45Q249.53-22.45 247.86-20.95 246.18-19.45 245.23-17 244.28-14.55 244.18-11.7L244.18-11.7 244.18 0ZM279.08 8.75L279.08 8.75Q274.98 8.75 272.35 8.13 269.73 7.5 268.48 6.23 267.23 4.95 267.23 3.05L267.23 3.05Q267.23 0.75 269.03-0.75 270.83-2.25 274.48-2.75L274.48-2.75 274.48-3.65Q271.83-3.65 270.48-4.3 269.13-4.95 269.13-6.25L269.13-6.25Q269.13-7.6 270.48-8.53 271.83-9.45 274.88-10.25L274.88-10.25 274.88-11.2Q271.83-11.25 270.23-13.03 268.63-14.8 268.63-17.65L268.63-17.65Q268.63-20.2 270-22.08 271.38-23.95 274-24.98 276.63-26 280.28-26L280.28-26 292.48-26 292.48-22.15 284.48-23.4 284.48-22.45Q287.38-21.85 288.93-20.43 290.48-19 290.48-16.6L290.48-16.6Q290.48-14.45 289.23-12.85 287.98-11.25 285.55-10.38 283.13-9.5 279.58-9.5L279.58-9.5Q278.88-9.5 278.1-9.58 277.33-9.65 276.08-9.85L276.08-9.85Q274.73-9 273.9-8.3 273.08-7.6 273.08-7.05L273.08-7.05Q273.08-6.5 273.85-6.18 274.63-5.85 275.73-5.75 276.83-5.65 277.78-5.65L277.78-5.65 283.63-5.65Q284.63-5.65 286.15-5.45 287.68-5.25 289.2-4.6 290.73-3.95 291.78-2.6 292.83-1.25 292.83 1.15L292.83 1.15Q292.83 3.85 291.23 5.55 289.63 7.25 286.58 8 283.53 8.75 279.08 8.75ZM279.18 5L279.18 5Q282.48 5 284.58 4.58 286.68 4.15 287.65 3.25 288.63 2.35 288.63 0.95L288.63 0.95Q288.63-0.35 287.95-1.07 287.28-1.8 286.28-2.1 285.28-2.4 284.28-2.48 283.28-2.55 282.58-2.55L282.58-2.55 276.73-2.55Q273.83-1.9 272.73-0.75 271.63 0.4 271.63 1.7L271.63 1.7Q271.63 3.1 272.63 3.8 273.63 4.5 275.35 4.75 277.08 5 279.18 5ZM279.78-12.45L279.78-12.45Q282.93-12.45 284.53-13.75 286.13-15.05 286.13-17.25L286.13-17.25Q286.13-19.6 284.5-21.13 282.88-22.65 279.63-22.65L279.63-22.65Q276.48-22.65 274.8-21.2 273.13-19.75 273.13-17.45L273.13-17.45Q273.13-15.95 273.9-14.83 274.68-13.7 276.15-13.08 277.63-12.45 279.78-12.45ZM315.72 0L311.17 0 311.17-16 311.17-25.85 315.22-25.85 314.77-17.65 315.62-17.65Q316.27-20.6 317.37-22.58 318.47-24.55 320.1-25.53 321.72-26.5 323.82-26.5L323.82-26.5Q326.32-26.5 327.92-25.28 329.52-24.05 330.3-22.1 331.07-20.15 331.07-17.8L331.07-17.8 331.87-17.8Q332.42-20.6 333.57-22.55 334.72-24.5 336.42-25.5 338.12-26.5 340.32-26.5L340.32-26.5Q342.32-26.5 343.82-25.7 345.32-24.9 346.37-23.33 347.42-21.75 347.92-19.45 348.42-17.15 348.42-14.15L348.42-14.15 348.42 0 343.87 0 343.87-13.55Q343.87-16.5 343.32-18.48 342.77-20.45 341.7-21.43 340.62-22.4 338.97-22.4L338.97-22.4Q337.12-22.4 335.65-21.13 334.17-19.85 333.25-17.57 332.32-15.3 332.02-12.4L332.02-12.4 332.02 0 327.57 0 327.57-13.1Q327.57-16.2 327.02-18.25 326.47-20.3 325.4-21.35 324.32-22.4 322.62-22.4L322.62-22.4Q320.62-22.4 319.17-21.03 317.72-19.65 316.85-17.35 315.97-15.05 315.72-12.2L315.72-12.2 315.72 0ZM360.52 0L355.97 0 355.97-25.85 360.52-25.85 360.52 0ZM358.27-30.35L358.27-30.35Q356.67-30.35 355.87-31 355.07-31.65 355.07-32.95L355.07-32.95Q355.07-34.25 355.87-34.9 356.67-35.55 358.22-35.55L358.22-35.55Q359.82-35.55 360.62-34.9 361.42-34.25 361.42-32.95L361.42-32.95Q361.42-31.7 360.62-31.03 359.82-30.35 358.27-30.35ZM372.97 0L368.42 0 368.42-16.05 368.42-25.85 372.52-25.85 372.07-17.65 372.92-17.65Q373.62-20.7 374.79-22.65 375.97-24.6 377.77-25.55 379.57-26.5 381.97-26.5L381.97-26.5Q386.27-26.5 388.49-23.43 390.72-20.35 390.72-14.25L390.72-14.25 390.72 0 386.12 0 386.12-13.85Q386.12-18.25 384.74-20.35 383.37-22.45 380.72-22.45L380.72-22.45Q378.32-22.45 376.64-20.95 374.97-19.45 374.02-17 373.07-14.55 372.97-11.7L372.97-11.7 372.97 0ZM407.32 0.65L407.32 0.65Q404.02 0.65 401.67-1.1 399.32-2.85 398.09-5.9 396.87-8.95 396.87-12.9L396.87-12.9Q396.87-16.85 398.07-19.9 399.27-22.95 401.57-24.7 403.87-26.45 407.22-26.45L407.22-26.45Q409.97-26.45 411.72-25.3 413.47-24.15 414.54-22.33 415.62-20.5 416.12-18.35L416.12-18.35 417.02-18.35Q416.77-19.8 416.57-21.38 416.37-22.95 416.22-24.48 416.07-26 416.07-27.2L416.07-27.2 416.07-35 420.67-35 420.67-12.75 420.67 0 416.57 0 416.82-7 416.02-7Q415.42-4.75 414.32-3.03 413.22-1.3 411.52-0.33 409.82 0.65 407.32 0.65ZM408.37-3.35L408.37-3.35Q410.17-3.35 411.62-4.2 413.07-5.05 414.07-6.43 415.07-7.8 415.59-9.4 416.12-11 416.12-12.5L416.12-12.5 416.12-13.1Q416.12-14.15 415.82-15.38 415.52-16.6 414.94-17.85 414.37-19.1 413.44-20.18 412.52-21.25 411.27-21.88 410.02-22.5 408.47-22.5L408.47-22.5Q406.22-22.5 404.69-21.23 403.17-19.95 402.39-17.75 401.62-15.55 401.62-12.8L401.62-12.8Q401.62-9.95 402.42-7.83 403.22-5.7 404.74-4.53 406.27-3.35 408.37-3.35ZM438.16 0.65L438.16 0.65Q435.46 0.65 433.36 0.08 431.26-0.5 429.86-1.58 428.46-2.65 427.71-4.15 426.96-5.65 426.91-7.45L426.91-7.45 430.76-8.45Q430.66-6.8 431.59-5.58 432.51-4.35 434.24-3.7 435.96-3.05 438.41-3.05L438.41-3.05Q441.36-3.05 442.99-4.05 444.61-5.05 444.61-6.8L444.61-6.8Q444.61-8.2 443.71-8.97 442.81-9.75 441.24-10.23 439.66-10.7 437.51-11.1L437.51-11.1Q435.71-11.5 433.91-12 432.11-12.5 430.64-13.33 429.16-14.15 428.26-15.5 427.36-16.85 427.36-18.85L427.36-18.85Q427.36-21.2 428.61-22.9 429.86-24.6 432.16-25.55 434.46-26.5 437.66-26.5L437.66-26.5Q440.86-26.5 443.11-25.53 445.36-24.55 446.66-22.8 447.96-21.05 448.11-18.7L448.11-18.7 444.16-17.7Q444.11-19.35 443.29-20.5 442.46-21.65 440.96-22.23 439.46-22.8 437.46-22.8L437.46-22.8Q434.81-22.8 433.26-21.8 431.71-20.8 431.71-19.05L431.71-19.05Q431.71-17.75 432.64-16.95 433.56-16.15 435.16-15.7 436.76-15.25 438.71-14.8L438.71-14.8Q440.71-14.4 442.54-13.9 444.36-13.4 445.81-12.6 447.26-11.8 448.11-10.48 448.96-9.15 448.96-7.1L448.96-7.1Q448.96-4.55 447.61-2.83 446.26-1.1 443.84-0.23 441.41 0.65 438.16 0.65ZM454.96 6.85L451.16 6.85Q452.06 4.5 452.44 2.65 452.81 0.8 452.89-0.83 452.96-2.45 452.96-4.05L452.96-4.05 457.31-4.05Q457.31-1.45 456.99 0.58 456.66 2.6 456.11 4.13 455.56 5.65 454.96 6.85L454.96 6.85ZM484.76 0.65L484.76 0.65Q482.06 0.65 479.96 0.08 477.86-0.5 476.46-1.58 475.06-2.65 474.31-4.15 473.56-5.65 473.51-7.45L473.51-7.45 477.36-8.45Q477.26-6.8 478.18-5.58 479.11-4.35 480.83-3.7 482.56-3.05 485.01-3.05L485.01-3.05Q487.96-3.05 489.58-4.05 491.21-5.05 491.21-6.8L491.21-6.8Q491.21-8.2 490.31-8.97 489.41-9.75 487.83-10.23 486.26-10.7 484.11-11.1L484.11-11.1Q482.31-11.5 480.51-12 478.71-12.5 477.23-13.33 475.76-14.15 474.86-15.5 473.96-16.85 473.96-18.85L473.96-18.85Q473.96-21.2 475.21-22.9 476.46-24.6 478.76-25.55 481.06-26.5 484.26-26.5L484.26-26.5Q487.46-26.5 489.71-25.53 491.96-24.55 493.26-22.8 494.56-21.05 494.71-18.7L494.71-18.7 490.76-17.7Q490.71-19.35 489.88-20.5 489.06-21.65 487.56-22.23 486.06-22.8 484.06-22.8L484.06-22.8Q481.41-22.8 479.86-21.8 478.31-20.8 478.31-19.05L478.31-19.05Q478.31-17.75 479.23-16.95 480.16-16.15 481.76-15.7 483.36-15.25 485.31-14.8L485.31-14.8Q487.31-14.4 489.13-13.9 490.96-13.4 492.41-12.6 493.86-11.8 494.71-10.48 495.56-9.15 495.56-7.1L495.56-7.1Q495.56-4.55 494.21-2.83 492.86-1.1 490.43-0.23 488.01 0.65 484.76 0.65ZM506.2 0L501.65 0 501.65-15.7 501.65-35 506.35-35 506.35-26.95Q506.35-25.85 506.28-24.73 506.2-23.6 506.08-22.45 505.95-21.3 505.8-20.13 505.65-18.95 505.45-17.75L505.45-17.75 506.3-17.75Q507.05-20.7 508.2-22.63 509.35-24.55 511.08-25.53 512.8-26.5 515.2-26.5L515.2-26.5Q519.6-26.5 521.78-23.43 523.95-20.35 523.95-14.25L523.95-14.25 523.95 0 519.35 0 519.35-13.8Q519.35-18.3 517.98-20.38 516.6-22.45 513.85-22.45L513.85-22.45Q511.55-22.45 509.95-21.1 508.35-19.75 507.43-17.45 506.5-15.15 506.2-12.2L506.2-12.2 506.2 0ZM537.4 0.65L537.4 0.65Q535.3 0.65 533.6-0.18 531.9-1 530.9-2.63 529.9-4.25 529.9-6.75L529.9-6.75Q529.9-8.6 530.58-10 531.25-11.4 532.67-12.4 534.1-13.4 536.35-14.05 538.6-14.7 541.85-15.15L541.85-15.15Q543.7-15.4 544.88-15.65 546.05-15.9 546.6-16.48 547.15-17.05 547.15-18.2L547.15-18.2Q547.15-20.1 545.85-21.4 544.55-22.7 541.75-22.7L541.75-22.7Q540.3-22.7 538.8-22.2 537.3-21.7 536.17-20.53 535.05-19.35 534.75-17.25L534.75-17.25 530.55-18.65Q530.95-20.45 531.88-21.9 532.8-23.35 534.25-24.38 535.7-25.4 537.63-25.95 539.55-26.5 541.9-26.5L541.9-26.5Q545.15-26.5 547.33-25.4 549.5-24.3 550.58-22.03 551.65-19.75 551.65-16.2L551.65-16.2 551.65-10.45Q551.65-8.9 551.73-7.08 551.8-5.25 551.95-3.43 552.1-1.6 552.25 0L552.25 0 548.05 0Q547.9-1.6 547.77-3.2 547.65-4.8 547.6-6.4L547.6-6.4 546.95-6.4Q546.2-4.55 544.95-2.95 543.7-1.35 541.83-0.35 539.95 0.65 537.4 0.65ZM538.75-3.05L538.75-3.05Q539.85-3.05 540.98-3.4 542.1-3.75 543.23-4.55 544.35-5.35 545.38-6.6 546.4-7.85 547.2-9.6L547.2-9.6 547.2-14.6 548.5-14.35Q547.7-13.55 546.38-13.15 545.05-12.75 543.45-12.5 541.85-12.25 540.25-11.98 538.65-11.7 537.33-11.18 536-10.65 535.2-9.7 534.4-8.75 534.4-7.1L534.4-7.1Q534.4-5.1 535.6-4.08 536.8-3.05 538.75-3.05ZM563.9 8.1L559.3 8.1 559.3-12.9 559.3-25.85 563.4-25.85 563.15-19.2 563.9-19.2Q564.5-21.4 565.57-23.03 566.65-24.65 568.35-25.58 570.05-26.5 572.45-26.5L572.45-26.5Q576-26.5 578.37-24.73 580.75-22.95 581.95-19.88 583.15-16.8 583.15-12.9L583.15-12.9Q583.15-9 581.95-5.95 580.75-2.9 578.42-1.13 576.1 0.65 572.75 0.65L572.75 0.65Q570.05 0.65 568.27-0.48 566.5-1.6 565.45-3.45 564.4-5.3 563.8-7.3L563.8-7.3 562.95-7.3Q563.25-5.95 563.45-4.5 563.65-3.05 563.77-1.63 563.9-0.2 563.9 1.1L563.9 1.1 563.9 8.1ZM571.6-3.3L571.6-3.3Q573.8-3.3 575.3-4.58 576.8-5.85 577.6-8.05 578.4-10.25 578.4-13L578.4-13Q578.4-15.95 577.57-18.05 576.75-20.15 575.25-21.33 573.75-22.5 571.6-22.5L571.6-22.5Q569.75-22.5 568.32-21.68 566.9-20.85 565.9-19.48 564.9-18.1 564.37-16.48 563.85-14.85 563.85-13.25L563.85-13.25 563.85-12.65Q563.85-11.65 564.15-10.43 564.45-9.2 565.05-7.95 565.65-6.7 566.57-5.65 567.5-4.6 568.75-3.95 570-3.3 571.6-3.3ZM594.29 0L589.74 0 589.74-25.85 594.29-25.85 594.29 0ZM592.04-30.35L592.04-30.35Q590.44-30.35 589.64-31 588.84-31.65 588.84-32.95L588.84-32.95Q588.84-34.25 589.64-34.9 590.44-35.55 591.99-35.55L591.99-35.55Q593.59-35.55 594.39-34.9 595.19-34.25 595.19-32.95L595.19-32.95Q595.19-31.7 594.39-31.03 593.59-30.35 592.04-30.35ZM606.74 0L602.19 0 602.19-16.05 602.19-25.85 606.29-25.85 605.84-17.65 606.69-17.65Q607.39-20.7 608.57-22.65 609.74-24.6 611.54-25.55 613.34-26.5 615.74-26.5L615.74-26.5Q620.04-26.5 622.27-23.43 624.49-20.35 624.49-14.25L624.49-14.25 624.49 0 619.89 0 619.89-13.85Q619.89-18.25 618.52-20.35 617.14-22.45 614.49-22.45L614.49-22.45Q612.09-22.45 610.42-20.95 608.74-19.45 607.79-17 606.84-14.55 606.74-11.7L606.74-11.7 606.74 0ZM641.64 8.75L641.64 8.75Q637.54 8.75 634.91 8.13 632.29 7.5 631.04 6.23 629.79 4.95 629.79 3.05L629.79 3.05Q629.79 0.75 631.59-0.75 633.39-2.25 637.04-2.75L637.04-2.75 637.04-3.65Q634.39-3.65 633.04-4.3 631.69-4.95 631.69-6.25L631.69-6.25Q631.69-7.6 633.04-8.53 634.39-9.45 637.44-10.25L637.44-10.25 637.44-11.2Q634.39-11.25 632.79-13.03 631.19-14.8 631.19-17.65L631.19-17.65Q631.19-20.2 632.56-22.08 633.94-23.95 636.56-24.98 639.19-26 642.84-26L642.84-26 655.04-26 655.04-22.15 647.04-23.4 647.04-22.45Q649.94-21.85 651.49-20.43 653.04-19 653.04-16.6L653.04-16.6Q653.04-14.45 651.79-12.85 650.54-11.25 648.11-10.38 645.69-9.5 642.14-9.5L642.14-9.5Q641.44-9.5 640.66-9.58 639.89-9.65 638.64-9.85L638.64-9.85Q637.29-9 636.46-8.3 635.64-7.6 635.64-7.05L635.64-7.05Q635.64-6.5 636.41-6.18 637.19-5.85 638.29-5.75 639.39-5.65 640.34-5.65L640.34-5.65 646.19-5.65Q647.19-5.65 648.71-5.45 650.24-5.25 651.76-4.6 653.29-3.95 654.34-2.6 655.39-1.25 655.39 1.15L655.39 1.15Q655.39 3.85 653.79 5.55 652.19 7.25 649.14 8 646.09 8.75 641.64 8.75ZM641.74 5L641.74 5Q645.04 5 647.14 4.58 649.24 4.15 650.21 3.25 651.19 2.35 651.19 0.95L651.19 0.95Q651.19-0.35 650.51-1.07 649.84-1.8 648.84-2.1 647.84-2.4 646.84-2.48 645.84-2.55 645.14-2.55L645.14-2.55 639.29-2.55Q636.39-1.9 635.29-0.75 634.19 0.4 634.19 1.7L634.19 1.7Q634.19 3.1 635.19 3.8 636.19 4.5 637.91 4.75 639.64 5 641.74 5ZM642.34-12.45L642.34-12.45Q645.49-12.45 647.09-13.75 648.69-15.05 648.69-17.25L648.69-17.25Q648.69-19.6 647.06-21.13 645.44-22.65 642.19-22.65L642.19-22.65Q639.04-22.65 637.36-21.2 635.69-19.75 635.69-17.45L635.69-17.45Q635.69-15.95 636.46-14.83 637.24-13.7 638.71-13.08 640.19-12.45 642.34-12.45ZM681.78 0.5L681.78 0.5Q678.18 0.5 676.43-1.45 674.68-3.4 674.68-7.4L674.68-7.4 674.68-22.05 670.78-22.05 670.83-25.85 673.28-25.85Q674.53-25.85 675.11-26.3 675.68-26.75 675.78-27.8L675.78-27.8 676.28-31.7 679.08-31.7 679.08-25.85 686.53-25.85 686.53-22 679.08-22 679.08-7.5Q679.08-5.5 680.01-4.63 680.93-3.75 682.68-3.75L682.68-3.75Q683.63-3.75 684.66-4 685.68-4.25 686.68-5L686.68-5 686.68-0.45Q685.23 0.1 684.01 0.3 682.78 0.5 681.78 0.5ZM696.83 0L692.28 0 692.28-15.7 692.28-35 696.98-35 696.98-26.95Q696.98-25.85 696.91-24.73 696.83-23.6 696.71-22.45 696.58-21.3 696.43-20.13 696.28-18.95 696.08-17.75L696.08-17.75 696.93-17.75Q697.68-20.7 698.83-22.63 699.98-24.55 701.71-25.53 703.43-26.5 705.83-26.5L705.83-26.5Q710.23-26.5 712.41-23.43 714.58-20.35 714.58-14.25L714.58-14.25 714.58 0 709.98 0 709.98-13.8Q709.98-18.3 708.61-20.38 707.23-22.45 704.48-22.45L704.48-22.45Q702.18-22.45 700.58-21.1 698.98-19.75 698.06-17.45 697.13-15.15 696.83-12.2L696.83-12.2 696.83 0ZM733.18 0.65L733.18 0.65Q730.13 0.65 727.8-0.28 725.48-1.2 723.88-2.95 722.28-4.7 721.48-7.1 720.68-9.5 720.68-12.5L720.68-12.5Q720.68-15.55 721.48-18.1 722.28-20.65 723.83-22.55 725.38-24.45 727.63-25.48 729.88-26.5 732.78-26.5L732.78-26.5Q735.33-26.5 737.43-25.65 739.53-24.8 741-23.03 742.48-21.25 743.23-18.57 743.98-15.9 743.83-12.3L743.83-12.3 723.53-12.15 723.53-15.25 741.08-15.4 739.53-13.3Q739.78-16.45 738.93-18.5 738.08-20.55 736.5-21.6 734.93-22.65 732.78-22.65L732.78-22.65Q730.48-22.65 728.73-21.45 726.98-20.25 726.05-18 725.13-15.75 725.13-12.55L725.13-12.55Q725.13-7.95 727.18-5.53 729.23-3.1 733.23-3.1L733.23-3.1Q734.83-3.1 736-3.48 737.18-3.85 738-4.53 738.83-5.2 739.35-6.1 739.88-7 740.18-8.05L740.18-8.05 744.18-7.1Q743.73-5.3 742.8-3.88 741.88-2.45 740.5-1.45 739.13-0.45 737.33 0.1 735.53 0.65 733.18 0.65ZM769.47 0L764.97 0 764.97-18.25 760.37-18.25 760.37-21.9 766.82-21.5 766.82-22.35Q765.57-22.85 764.75-23.73 763.92-24.6 763.5-25.75 763.07-26.9 763.07-28.2L763.07-28.2Q763.07-30.3 764-31.85 764.92-33.4 766.65-34.3 768.37-35.2 770.77-35.2L770.77-35.2Q772.67-35.2 774.2-34.68 775.72-34.15 776.72-33.3L776.72-33.3 776.17-29.05Q775.22-29.95 773.87-30.48 772.52-31 771.17-31L771.17-31Q769.52-31 768.47-29.95 767.42-28.9 767.42-26.7L767.42-26.7Q767.42-25.45 767.77-24.55 768.12-23.65 768.7-23.03 769.27-22.4 769.87-22L769.87-22 776.27-22 776.22-18.25 769.47-18.25 769.47 0ZM789.72 0.65L789.72 0.65Q785.42 0.65 783.22-2.35 781.02-5.35 781.02-11.3L781.02-11.3 781.02-25.85 785.62-25.85 785.62-11.7Q785.62-7.5 786.92-5.45 788.22-3.4 791.02-3.4L791.02-3.4Q792.57-3.4 793.8-4.15 795.02-4.9 795.97-6.3 796.92-7.7 797.52-9.63 798.12-11.55 798.32-13.8L798.32-13.8 798.32-25.85 802.87-25.85 802.87-10.8 802.87 0 798.82 0 799.22-8.3 798.47-8.3Q797.82-5.2 796.65-3.23 795.47-1.25 793.72-0.3 791.97 0.65 789.72 0.65ZM818.82 0.5L818.82 0.5Q815.22 0.5 813.47-1.45 811.72-3.4 811.72-7.4L811.72-7.4 811.72-22.05 807.82-22.05 807.87-25.85 810.32-25.85Q811.57-25.85 812.14-26.3 812.72-26.75 812.82-27.8L812.82-27.8 813.32-31.7 816.12-31.7 816.12-25.85 823.57-25.85 823.57-22 816.12-22 816.12-7.5Q816.12-5.5 817.04-4.63 817.97-3.75 819.72-3.75L819.72-3.75Q820.67-3.75 821.69-4 822.72-4.25 823.72-5L823.72-5 823.72-0.45Q822.27 0.1 821.04 0.3 819.82 0.5 818.82 0.5ZM837.62 0.65L837.62 0.65Q833.32 0.65 831.12-2.35 828.92-5.35 828.92-11.3L828.92-11.3 828.92-25.85 833.52-25.85 833.52-11.7Q833.52-7.5 834.82-5.45 836.12-3.4 838.92-3.4L838.92-3.4Q840.47-3.4 841.69-4.15 842.92-4.9 843.87-6.3 844.82-7.7 845.42-9.63 846.02-11.55 846.22-13.8L846.22-13.8 846.22-25.85 850.77-25.85 850.77-10.8 850.77 0 846.72 0 847.12-8.3 846.37-8.3Q845.72-5.2 844.54-3.23 843.37-1.25 841.62-0.3 839.87 0.65 837.62 0.65ZM863.21 0L858.66 0 858.66-14 858.66-25.85 862.76-25.85 862.36-16.85 863.21-16.85Q863.66-19.8 864.61-21.95 865.56-24.1 867.14-25.3 868.71-26.5 871.06-26.5L871.06-26.5Q871.56-26.5 872.21-26.43 872.86-26.35 873.71-26.05L873.71-26.05 873.46-21.3Q872.71-21.6 871.96-21.73 871.21-21.85 870.51-21.85L870.51-21.85Q868.56-21.85 867.14-20.6 865.71-19.35 864.76-17.23 863.81-15.1 863.21-12.45L863.21-12.45 863.21 0ZM889.71 0.65L889.71 0.65Q886.66 0.65 884.34-0.28 882.01-1.2 880.41-2.95 878.81-4.7 878.01-7.1 877.21-9.5 877.21-12.5L877.21-12.5Q877.21-15.55 878.01-18.1 878.81-20.65 880.36-22.55 881.91-24.45 884.16-25.48 886.41-26.5 889.31-26.5L889.31-26.5Q891.86-26.5 893.96-25.65 896.06-24.8 897.54-23.03 899.01-21.25 899.76-18.57 900.51-15.9 900.36-12.3L900.36-12.3 880.06-12.15 880.06-15.25 897.61-15.4 896.06-13.3Q896.31-16.45 895.46-18.5 894.61-20.55 893.04-21.6 891.46-22.65 889.31-22.65L889.31-22.65Q887.01-22.65 885.26-21.45 883.51-20.25 882.59-18 881.66-15.75 881.66-12.55L881.66-12.55Q881.66-7.95 883.71-5.53 885.76-3.1 889.76-3.1L889.76-3.1Q891.36-3.1 892.54-3.48 893.71-3.85 894.54-4.53 895.36-5.2 895.89-6.1 896.41-7 896.71-8.05L896.71-8.05 900.71-7.1Q900.26-5.3 899.34-3.88 898.41-2.45 897.04-1.45 895.66-0.45 893.86 0.1 892.06 0.65 889.71 0.65Z" opacity="1" transform="matrix(1,0,0,1,0,0)" fill="#398378" class="slogan-text-1" data-fill-palette-color="secondary" id="text-1"></path></svg></g></svg></g></svg></g></svg></g><g transform="matrix(1,0,0,1,405.7779330017801,0)"><svg viewBox="0 0 90.08465133418602 90.08465133418602" height="90.08465133418602" width="90.08465133418602"><g data-palette-color="#31c48d"><rect width="24.62313803134418" height="90.08465133418602" fill="#31c48d" stroke="transparent" data-fill-palette-color="accent" x="0" fill-opacity="1"></rect><rect width="24.62313803134418" height="90.08465133418602" fill="#31c48d" stroke="transparent" data-fill-palette-color="accent" x="30.028217111395342" fill-opacity="0.75"></rect><rect width="24.62313803134418" height="90.08465133418602" fill="#31c48d" stroke="transparent" data-fill-palette-color="accent" x="60.056434222790685" fill-opacity="0.5"></rect></g></svg></g></svg></g><defs></defs></svg><rect width="395.52" height="71.85515185303103" fill="none" stroke="none" visibility="hidden"></rect></g></svg></g></svg>